<?xml version="1.0" encoding="UTF-8"?> <!-- Generator: Adobe Illustrator 24.2.1, SVG Export Plug-In . SVG Version: 6.00 Build 0) --> <svg xmlns:cc="http://creativecommons.org/ns#" xmlns:dc="http://purl.org/dc/elements/1.1/" xmlns:inkscape="http://www.inkscape.org/namespaces/inkscape" xmlns:rdf="http://www.w3.org/1999/02/22-rdf-syntax-ns#" xmlns:sodipodi="http://sodipodi.sourceforge.net/DTD/sodipodi-0.dtd" xmlns:svg="http://www.w3.org/2000/svg" xmlns="http://www.w3.org/2000/svg" xmlns:xlink="http://www.w3.org/1999/xlink" version="1.1" id="svg4091" inkscape:version="0.92.4 (5da689c313, 2019-01-14)" sodipodi:docname="SP_DARK.svg" x="0px" y="0px" width="300px" height="90px" viewBox="0 0 300 90" style="enable-background:new 0 0 300 90;" xml:space="preserve"> <style type="text/css"> .st0{fill:#F7F7F7;stroke:#FFFFFF;stroke-width:0.3639;stroke-miterlimit:3.6393;} .st1{fill:#F6F6F6;stroke:#FFFFFF;stroke-width:0.363;stroke-miterlimit:3.6393;} </style> <path class="st0" d="M260.7,8.8H257v43.3h5.3V26.5l10.6,25.6h3.7V8.8h-5.3v25.6L260.7,8.8z M253.5,52.2v-4.8H245V32.4h6.9v-4.8H245 V13.7h8.1V8.8h-13.8v43.3H253.5z M235,30.5c0-16.2-5.5-21.7-15.1-21.7H216v43.3h3.8C229.5,52.2,235,46.7,235,30.5L235,30.5z M221.7,14.4h0.7c4,0,6.3,5.3,6.3,16.1s-2.3,16.1-6.3,16.1h-0.7L221.7,14.4z M200.7,34.2c3.7,5.1,6,13.1,6.8,18h5.9 c-0.7-6.3-4-14.6-7.6-19.3c0,0,5.8-3.4,5.8-11.3c0-8.1-4.8-12.6-9.6-12.6h-7v43.3h5.7V34.2z M200.7,13.7h0.9c2.7,0,4,4,4,7.8 c0,4.1-2.2,7.9-4,7.9h-0.9V13.7z M177.3,41.3h7.4c0.5,3.7,1,7.4,1.3,10.9h5.9c-1.7-15.3-6.5-35.6-8.7-43.3h-4.5 c-2.2,7.7-7.1,28-8.7,43.3h5.9C176.3,48.7,176.8,44.9,177.3,41.3L177.3,41.3z M181,21.1c0,0,1.5,6.9,2.9,15.4H178 C179.5,28,181,21.1,181,21.1L181,21.1z M159.8,52.7c3.2,0,5.5-2.1,7.8-5.1V27.9h-9v4.8h3.3v13.1c0,0-0.5,2.1-2.1,2.1 c-3.4,0-5.5-6.6-5.5-17.4s1.9-17.1,5.5-17.1c2.5,0,4.4,2.9,4.4,2.9l3-3.9c0,0-2.8-4.1-7.5-4.1c-6.7,0-11.7,6-11.7,22.2 C148.1,46.7,153.4,52.7,159.8,52.7L159.8,52.7z M117.2,2.4H99.5V58h18.2v-6.2h-10.9V32.6h8.8v-6.2h-8.8V8.6h10.4V2.4z M97.2,54 l-4-5.2c0,0-1.5,3.2-4.7,3.2c-3.7,0-6.4-8-6.4-21.9c0-13.9,2.7-21.9,6.4-21.9c2,0,3.9,1.1,4.7,2.8l4-4.7c0,0-2.9-4.6-8.7-4.6 c-7.7,0-14.3,7.7-14.3,28.5c0,20.8,6.1,28.5,14.3,28.5C93.9,58.7,97.2,54,97.2,54L97.2,54z M60.8,2.4h7.4V58h-7.3L60.8,2.4L60.8,2.4 z M43.7,2.4h-8.4V58h7.3V36.2h1.1c6.6,0,13-6,13-17C56.7,8.4,50.3,2.4,43.7,2.4z M43.7,30h-1.1V8.6h1.1c2.7,0,5.4,4.6,5.4,10.7 C49.1,25.4,46.4,30,43.7,30L43.7,30z M21.8,7.9c2.3,0,4.6,3.9,4.6,3.9l3.7-5.2c0,0-3.2-5.1-8.6-5.1c-5.7,0-10.2,4.5-10.2,11 C11.3,24.9,24,40.7,24,48.3c0,2.3-1.6,4.2-4.1,4.2c-3.7,0-6.3-5.1-6.3-5.1l-4.1,5.3c0,0,4.7,6.2,10.4,6.2c6,0,11.2-4.1,11.2-10.7 c0-11-12.7-25.8-12.7-35.7C18.4,9.9,19.2,7.9,21.8,7.9L21.8,7.9z M134.4,0v61.3h156.1V0H134.4z M286.6,57.8H138.2V3.5h148.4 L286.6,57.8L286.6,57.8z"></path> <g> <path class="st1" d="M30.5,70.1H37v2.5h-2.7v6h2.7v2.5h-2.7v5.5h2.7v2.5h-6.4V70.1z"></path> <path class="st1" d="M44.4,69.9h4.1l2.9,19.2h-3.8l-0.2-3.4h-2.1L45,89.1h-3.8L44.4,69.9z M46.5,73.1h-0.3 c-0.1,2.7-0.2,4.4-0.3,5.1l-0.4,5h1.7l-0.3-3.9L46.5,73.1z"></path> <path class="st1" d="M53.5,70.1h9.1v2.5H60v16.6h-3.8V72.5h-2.7C53.5,72.5,53.5,70.1,53.5,70.1z"></path> <path class="st1" d="M67.4,70.1h3.8v19.1h-3.8V70.1z"></path> <path class="st1" d="M76.6,70.1h3.5l2.4,10h0.2l-0.4-10H86v19.1h-3.3l-2.6-10.6H80l0.4,10.6h-3.7L76.6,70.1L76.6,70.1z"></path> <path class="st1" d="M101.3,89.1c-0.5,0.1-1.3,0.1-2.3,0.1c-1.2,0-2.2-0.1-2.9-0.3c-1-0.3-1.8-0.8-2.5-1.6 c-0.7-0.8-1.3-1.8-1.7-3.1c-0.4-1.3-0.7-2.8-0.7-4.5c0-3.1,0.7-5.5,1.9-7.2c1.3-1.7,2.9-2.6,5-2.6c0.5,0,0.9,0,1.3,0.1 c0.4,0.1,1,0.3,1.8,0.6v3c-0.9-0.8-1.7-1.1-2.6-1.1c-1.1,0-2,0.6-2.6,1.7c-0.6,1.2-0.9,2.9-0.9,5.1c0,1.4,0.1,2.7,0.3,3.7 c0.2,1.1,0.5,1.9,0.9,2.4c0.3,0.4,0.7,0.8,1.2,1.1v-4.5h-1.5v-2.5h5.2L101.3,89.1L101.3,89.1z"></path> <path class="st1" d="M115.7,70.1h3.8v8.6h1.9v-8.6h3.8v19.1h-3.8v-8h-1.9v8h-3.8V70.1z"></path> <path class="st1" d="M130.3,79.8c0-3.7,0.6-6.4,1.7-8c0.9-1.3,2-1.9,3.3-1.9c0.6,0,1.2,0.1,1.8,0.5s1.2,0.9,1.6,1.7 c0.5,0.8,0.9,1.9,1.2,3.2c0.3,1.3,0.4,2.8,0.4,4.3c0,3.9-0.7,6.6-2.1,8.2c-0.8,0.9-1.8,1.4-2.9,1.4c-1.6,0-2.8-0.8-3.6-2.3 C130.8,85.2,130.3,82.8,130.3,79.8z M135.4,72.9c-0.3,0.3-0.5,0.7-0.7,1.1c-0.1,0.4-0.3,1.1-0.3,2.2c-0.1,1.7-0.1,3-0.1,3.9 c0,2.1,0.1,3.7,0.4,4.7c0.1,0.6,0.4,1.1,0.8,1.6c0.3-0.4,0.6-0.9,0.7-1.3c0.1-0.4,0.2-1.2,0.3-2.2c0.1-2,0.1-3.4,0.1-4.3 c0-2-0.1-3.5-0.4-4.3C135.9,73.7,135.7,73.2,135.4,72.9z"></path> <path class="st1" d="M145.5,70.1h3.8V84c0,1.2,0.3,1.9,0.9,2.3c0.5-0.5,0.8-1.2,0.8-2.1V70.1h3.8V84c0,1.7-0.6,3.1-1.7,4.1 c-0.9,0.8-1.9,1.2-2.9,1.2c-0.8,0-1.5-0.2-2.3-0.6s-1.3-1-1.7-1.7c-0.5-1-0.8-2-0.8-3L145.5,70.1L145.5,70.1z"></path> <path class="st1" d="M159.9,86.4c0.6,0.2,1.1,0.3,1.6,0.3c0.7,0,1.2-0.1,1.6-0.4s0.6-0.7,0.6-1.3c0-0.5-0.1-0.9-0.2-1.3 c-0.3-0.8-0.8-1.9-1.6-3.2c-0.8-1.3-1.3-2.5-1.7-3.6c-0.2-0.6-0.3-1.3-0.3-2.1c0-1.6,0.5-2.8,1.4-3.6c0.9-0.8,2.1-1.1,3.7-1.1 c0.7,0,1.5,0.1,2.4,0.3v2.5c-0.5-0.2-1-0.3-1.5-0.3c-0.7,0-1.2,0.2-1.6,0.5s-0.7,0.9-0.7,1.6c0,0.4,0.1,0.9,0.2,1.3 c0.3,0.8,0.8,1.8,1.5,3.1c0.8,1.5,1.5,2.9,1.9,4.1c0.2,0.6,0.3,1.3,0.3,2c0,1.4-0.5,2.4-1.5,3.2c-1,0.7-2.2,1.1-3.7,1.1 c-0.7,0-1.5-0.1-2.4-0.3V86.4z"></path> <path class="st1" d="M172.4,70.1h6.5v2.5h-2.7v6h2.7v2.5h-2.7v5.5h2.7v2.5h-6.5V70.1z"></path> <path class="st1" d="M194.5,79.9c-0.7-1.3-1.2-2.3-1.5-3.2c-0.3-0.9-0.4-1.7-0.4-2.5c0-1.4,0.4-2.4,1.3-3.2c0.9-0.7,1.9-1.1,3-1.1 c1,0,1.9,0.3,2.7,0.9c0.8,0.6,1.2,1.5,1.2,2.6c0,0.8-0.2,1.7-0.6,2.6s-1.1,2-2,3.2l1.5,2.5c0.3-0.7,0.4-1.7,0.5-2.9h3.3 c0,0.9-0.3,1.9-0.6,3.1c-0.4,1.2-0.8,2.3-1.4,3.2l2.2,4h-4L199,88c-1,0.8-2,1.3-3.1,1.3c-0.9,0-1.7-0.3-2.5-1 c-0.8-0.7-1.1-1.6-1.1-2.9c0-0.9,0.2-1.7,0.5-2.6C193.2,81.9,193.7,81,194.5,79.9z M196.1,82.8c-0.1,0.3-0.3,0.6-0.4,0.9 c-0.1,0.3-0.1,0.7-0.1,1c0,0.6,0.1,1.1,0.4,1.3c0.2,0.2,0.4,0.3,0.7,0.3c0.4,0,0.7-0.2,1-0.7L196.1,82.8z M196.9,72.3 c-0.6,0.5-0.9,1.1-0.9,1.9c0,0.8,0.3,1.6,0.7,2.4c0.5-0.7,0.8-1.5,0.8-2.4C197.5,73.4,197.3,72.8,196.9,72.3z"></path> <path class="st1" d="M227.6,89.1c-0.5,0.1-1.3,0.1-2.3,0.1c-1.2,0-2.2-0.1-2.9-0.3c-1-0.3-1.8-0.8-2.5-1.6 c-0.7-0.8-1.3-1.8-1.7-3.1c-0.4-1.3-0.7-2.8-0.7-4.5c0-3.1,0.7-5.5,1.9-7.2c1.3-1.7,2.9-2.6,5-2.6c0.5,0,0.9,0,1.3,0.1 c0.4,0.1,1,0.3,1.8,0.6v3c-0.9-0.8-1.7-1.1-2.6-1.1c-1.1,0-2,0.6-2.6,1.7c-0.6,1.2-0.9,2.9-0.9,5.1c0,1.4,0.1,2.7,0.3,3.7 c0.2,1.1,0.5,1.9,0.9,2.4c0.3,0.4,0.7,0.8,1.2,1.1v-4.5h-1.5v-2.5h5.2L227.6,89.1L227.6,89.1z"></path> <path class="st1" d="M232.7,70.1h2c2.4,0,4.2,0.5,5.6,1.4c1.3,0.9,2,2.2,2,3.9c0,0.9-0.3,1.8-0.8,2.5c-0.4,0.5-1,1-1.8,1.5 c0.6,0.4,1,0.8,1.3,1.2c0.6,0.8,1,1.9,1.4,3.2c0.3,1.3,0.6,3.1,0.9,5.3h-3.8c-0.1-2.8-0.5-4.9-1.1-6.3c-0.4-1-1.1-1.7-1.8-2.1v8.3 h-3.8L232.7,70.1L232.7,70.1z M236.8,72.8v5.5c0.6-0.2,1.1-0.5,1.5-1c0.4-0.5,0.5-1.1,0.5-1.7s-0.2-1.3-0.5-1.8 C237.9,73.3,237.4,73,236.8,72.8z"></path> <path class="st1" d="M247.9,70.1h3.8v19.1h-3.8V70.1z"></path> <path class="st1" d="M257,70.1h3.8v16.5h2.2v2.5h-6V70.1z"></path> <path class="st1" d="M267.9,70.1h3.8v16.5h2.2v2.5h-6V70.1z"></path> </g> </svg> 